{
  "accessors": [
    {
      "bufferView": 2,
      "componentType": 5126,
      "count": 1322,
      "max": [
        18.207073211669922,
        4.406468868255615,
        10.1882905960083
      ],
      "min": [
        9.679353713989258,
        -7.585638523101807,
        0.0
      ],
      "type": "VEC3"
    },
    {
      "bufferView": 2,
      "byteOffset": 15864,
      "componentType": 5126,
      "count": 1322,
      "max": [
        1.0,
        1.0,
        1.0
      ],
      "min": [
        -1.0,
        -1.0,
        -1.0
      ],
      "type": "VEC3"
    },
    {
      "bufferView": 1,
      "componentType": 5126,
      "count": 1322,
      "max": [
        0.9528341293334961,
        0.9311213493347168
      ],
      "min": [
        0.007015228271484375,
        0.007015228271484375
      ],
      "type": "VEC2"
    },
    {
      "bufferView": 1,
      "byteOffset": 10576,
      "componentType": 5126,
      "count": 1322,
      "max": [
        0.9528341293334961,
        0.9311213493347168
      ],
      "min": [
        0.007015228271484375,
        0.007015228271484375
      ],
      "type": "VEC2"
    },
    {
      "bufferView": 1,
      "byteOffset": 21152,
      "componentType": 5126,
      "count": 1322,
      "max": [
        0.9528341293334961,
        0.9311213493347168
      ],
      "min": [
        0.007015228271484375,
        0.007015228271484375
      ],
      "type": "VEC2"
    },
    {
      "bufferView": 0,
      "componentType": 5125,
      "count": 2994,
      "type": "SCALAR"
    },
    {
      "bufferView": 2,
      "byteOffset": 31728,
      "componentType": 5126,
      "count": 1501,
      "max": [
        17.70611000061035,
        0.012235045433044434,
        10.0
      ],
      "min": [
        10.180314064025879,
        -3.928086519241333,
        5.10053825378418
      ],
      "type": "VEC3"
    },
    {
      "bufferView": 2,
      "byteOffset": 49740,
      "componentType": 5126,
      "count": 1501,
      "max": [
        1.0,
        1.0,
        1.0
      ],
      "min": [
        -1.0,
        -1.0,
        -1.0
      ],
      "type": "VEC3"
    },
    {
      "bufferView": 1,
      "byteOffset": 31728,
      "componentType": 5126,
      "count": 1501,
      "max": [
        0.9907910823822021,
        0.9929838180541992
      ],
      "min": [
        0.00701594352722168,
        0.007015705108642578
      ],
      "type": "VEC2"
    },
    {
      "bufferView": 0,
      "byteOffset": 11976,
      "componentType": 5125,
      "count": 2892,
      "type": "SCALAR"
    },
    {
      "bufferView": 2,
      "byteOffset": 67752,
      "componentType": 5126,
      "count": 334,
      "max": [
        17.943212509155273,
        4.406468868255615,
        10.1882905960083
      ],
      "min": [
        9.943212509155273,
        -7.585457801818848,
        0.0
      ],
      "type": "VEC3"
    },
    {
      "bufferView": 2,
      "byteOffset": 71760,
      "componentType": 5126,
      "count": 334,
      "max": [
        1.0,
        1.0,
        1.0
      ],
      "min": [
        -1.0,
        -1.0,
        -1.0
      ],
      "type": "VEC3"
    },
    {
      "bufferView": 1,
      "byteOffset": 43736,
      "componentType": 5126,
      "count": 334,
      "max": [
        0.9533302783966064,
        0.9256839752197266
      ],
      "min": [
        0.00701594352722168,
        0.007015705108642578
      ],
      "type": "VEC2"
    },
    {
      "bufferView": 0,
      "byteOffset": 23544,
      "componentType": 5125,
      "count": 582,
      "type": "SCALAR"
    },
    {
      "bufferView": 2,
      "byteOffset": 75768,
      "componentType": 5126,
      "count": 2740,
      "max": [
        17.459135055541992,
        -3.870021104812622,
        3.857551336288452
      ],
      "min": [
        10.42647647857666,
        -7.610577583312988,
        -8.850096833157295e-08
      ],
      "type": "VEC3"
    },
    {
      "bufferView": 2,
      "byteOffset": 108648,
      "componentType": 5126,
      "count": 2740,
      "max": [
        0.9989486336708069,
        0.9992701411247253,
        0.9987300634384155
      ],
      "min": [
        -0.9989373683929443,
        -0.9992647171020508,
        -0.998727560043335
      ],
      "type": "VEC3"
    },
    {
      "bufferView": 1,
      "byteOffset": 46408,
      "componentType": 5126,
      "count": 2740,
      "max": [
        0.925105094909668,
        0.920076847076416
      ],
      "min": [
        0.18236827850341797,
        0.007015898823738098
      ],
      "type": "VEC2"
    },
    {
      "bufferView": 0,
      "byteOffset": 25872,
      "componentType": 5125,
      "count": 4110,
      "type": "SCALAR"
    },
    {
      "bufferView": 2,
      "byteOffset": 141528,
      "componentType": 5126,
      "count": 168,
      "max": [
        17.672971725463867,
        -0.020903918892145157,
        9.887401580810547
      ],
      "min": [
        10.21345329284668,
        -3.8152575492858887,
        5.133677005767822
      ],
      "type": "VEC3"
    },
    {
      "bufferView": 2,
      "byteOffset": 143544,
      "componentType": 5126,
      "count": 168,
      "max": [
        1.0,
        0.0,
        0.0
      ],
      "min": [
        -1.0,
        -1.0,
        0.0
      ],
      "type": "VEC3"
    },
    {
      "bufferView": 1,
      "byteOffset": 68328,
      "componentType": 5126,
      "count": 168,
      "max": [
        0.9321832656860352,
        0.9318294525146484
      ],
      "min": [
        0.00701594352722168,
        0.1145930290222168
      ],
      "type": "VEC2"
    },
    {
      "bufferView": 0,
      "byteOffset": 42312,
      "componentType": 5125,
      "count": 252,
      "type": "SCALAR"
    }
  ],
  "asset": {
    "extras": {
      "author": "A9908244 (https://sketchfab.com/A9908244)",
      "license": "CC-BY-4.0 (http://creativecommons.org/licenses/by/4.0/)",
      "source": "https://sketchfab.com/3d-models/building-sci-ficyberpunk-33439c18936c48da883da19422bdf61e",
      "title": "Building - Sci fi/cyberpunk"
    },
    "generator": "Sketchfab-14.64.0",
    "version": "2.0"
  },
  "bufferViews": [
    {
      "buffer": 0,
      "byteLength": 43320,
      "name": "floatBufferViews",
      "target": 34963
    },
    {
      "buffer": 0,
      "byteLength": 69672,
      "byteOffset": 43320,
      "byteStride": 8,
      "name": "floatBufferViews",
      "target": 34962
    },
    {
      "buffer": 0,
      "byteLength": 145560,
      "byteOffset": 112992,
      "byteStride": 12,
      "name": "floatBufferViews",
      "target": 34962
    }
  ],
  "buffers": [
    {
      "byteLength": 258552,
      "uri": "scene.bin"
    }
  ],
  "images": [
    {
      "uri": "textures/Material.002_baseColor.png"
    },
    {
      "uri": "textures/Material.002_metallicRoughness.png"
    },
    {
      "uri": "textures/Blue_lights_metallicRoughness.png"
    },
    {
      "uri": "textures/Blue_lights_emissive.png"
    },
    {
      "uri": "textures/Windows_baseColor.png"
    }
  ],
  "materials": [
    {
      "doubleSided": true,
      "name": "Material.002",
      "pbrMetallicRoughness": {
        "baseColorTexture": {
          "index": 0
        },
        "metallicRoughnessTexture": {
          "index": 1
        }
      }
    },
    {
      "doubleSided": true,
      "name": "smart_metal_v2_02",
      "pbrMetallicRoughness": {
        "baseColorTexture": {
          "index": 0
        },
        "metallicRoughnessTexture": {
          "index": 1
        }
      }
    },
    {
      "doubleSided": true,
      "emissiveFactor": [
        1.0,
        1.0,
        1.0
      ],
      "emissiveTexture": {
        "index": 3
      },
      "name": "Blue_lights",
      "pbrMetallicRoughness": {
        "baseColorTexture": {
          "index": 0
        },
        "metallicRoughnessTexture": {
          "index": 2
        }
      }
    },
    {
      "doubleSided": true,
      "emissiveFactor": [
        1.0,
        1.0,
        1.0
      ],
      "emissiveTexture": {
        "index": 3
      },
      "name": "Pink_lights",
      "pbrMetallicRoughness": {
        "baseColorTexture": {
          "index": 0
        },
        "metallicRoughnessTexture": {
          "index": 1
        }
      }
    },
    {
      "alphaMode": "BLEND",
      "doubleSided": true,
      "name": "Windows",
      "pbrMetallicRoughness": {
        "baseColorTexture": {
          "index": 4
        },
        "metallicRoughnessTexture": {
          "index": 2
        }
      }
    }
  ],
  "meshes": [
    {
      "name": "Building 2_Material.002_0",
      "primitives": [
        {
          "attributes": {
            "NORMAL": 1,
            "POSITION": 0,
            "TEXCOORD_0": 2,
            "TEXCOORD_1": 3,
            "TEXCOORD_2": 4
          },
          "indices": 5,
          "material": 0,
          "mode": 4
        }
      ]
    },
    {
      "name": "Building 2_smart_metal_v2_02_0",
      "primitives": [
        {
          "attributes": {
            "NORMAL": 7,
            "POSITION": 6,
            "TEXCOORD_0": 8
          },
          "indices": 9,
          "material": 1,
          "mode": 4
        }
      ]
    },
    {
      "name": "Building 2_Blue lights_0",
      "primitives": [
        {
          "attributes": {
            "NORMAL": 11,
            "POSITION": 10,
            "TEXCOORD_0": 12
          },
          "indices": 13,
          "material": 2,
          "mode": 4
        }
      ]
    },
    {
      "name": "Building 2_Pink lights_0",
      "primitives": [
        {
          "attributes": {
            "NORMAL": 15,
            "POSITION": 14,
            "TEXCOORD_0": 16
          },
          "indices": 17,
          "material": 3,
          "mode": 4
        }
      ]
    },
    {
      "name": "Building 2_Windows_0",
      "primitives": [
        {
          "attributes": {
            "NORMAL": 19,
            "POSITION": 18,
            "TEXCOORD_0": 20
          },
          "indices": 21,
          "material": 4,
          "mode": 4
        }
      ]
    }
  ],
  "nodes": [
    {
      "children": [
        1
      ],
      "matrix": [
        1.0,
        0.0,
        0.0,
        0.0,
        0.0,
        2.220446049250313e-16,
        -1.0,
        0.0,
        0.0,
        1.0,
        2.220446049250313e-16,
        0.0,
        0.0,
        0.0,
        0.0,
        1.0
      ],
      "name": "Sketchfab_model"
    },
    {
      "children": [
        2
      ],
      "matrix": [
        0.009999999776482582,
        0.0,
        0.0,
        0.0,
        0.0,
        0.0,
        0.009999999776482582,
        0.0,
        0.0,
        -0.009999999776482582,
        0.0,
        0.0,
        0.0,
        0.0,
        0.0,
        1.0
      ],
      "name": "1f13c6cc16734ef1b182c70effece15d.fbx"
    },
    {
      "children": [
        3
      ],
      "name": "RootNode"
    },
    {
      "children": [
        4,
        5,
        6,
        7,
        8
      ],
      "matrix": [
        100.0,
        0.0,
        0.0,
        0.0,
        0.0,
        -1.629206793918314e-05,
        -99.99999999999868,
        0.0,
        0.0,
        99.99999999999868,
        -1.629206793918314e-05,
        0.0,
        0.0,
        0.0,
        0.0,
        1.0
      ],
      "name": "Building 2"
    },
    {
      "mesh": 0,
      "name": "Building 2_Material.002_0"
    },
    {
      "mesh": 1,
      "name": "Building 2_smart_metal_v2_02_0"
    },
    {
      "mesh": 2,
      "name": "Building 2_Blue lights_0"
    },
    {
      "mesh": 3,
      "name": "Building 2_Pink lights_0"
    },
    {
      "mesh": 4,
      "name": "Building 2_Windows_0"
    }
  ],
  "samplers": [
    {
      "magFilter": 9729,
      "minFilter": 9987,
      "wrapS": 10497,
      "wrapT": 10497
    }
  ],
  "scene": 0,
  "scenes": [
    {
      "name": "Sketchfab_Scene",
      "nodes": [
        0
      ]
    }
  ],
  "textures": [
    {
      "sampler": 0,
      "source": 0
    },
    {
      "sampler": 0,
      "source": 1
    },
    {
      "sampler": 0,
      "source": 2
    },
    {
      "sampler": 0,
      "source": 3
    },
    {
      "sampler": 0,
      "source": 4
    }
  ]
}
